<svg viewBox="0 0 24 24" xmlns="http://www.w3.org/2000/svg">
  <rect width="24" height="24" rx="4" fill="white"/>
  <rect width="24" height="24" rx="4" fill="none" stroke="#E5E5E5" stroke-width="1"/>
  <path d="M6 5.5C6 5.5 7.2 5.6 8 6.2L16.5 12.8C17 13.2 17.5 13.2 17.5 12.5V7C17.5 6.2 17 5.8 16.2 5.7L8.5 4.5C7.5 4.3 6 4.5 6 5.5Z" fill="#000"/>
  <path d="M6 5.5V18.5C6 19.2 6.5 19.5 7.2 19.5H16.8C17.5 19.5 18 19 18 18.3V7C18 6.5 17.5 6.1 17 5.9" stroke="#000" stroke-width="1.2" fill="none" stroke-linecap="round"/>
  <path d="M9 9L9 16M9 9L14 16M14 9L14 16" stroke="white" stroke-width="1.5" stroke-linecap="round"/>
</svg>
